<?xml version="1.0" standalone="no"?><!DOCTYPE svg PUBLIC "-//W3C//DTD SVG 1.1//EN" "http://www.w3.org/Graphics/SVG/1.1/DTD/svg11.dtd"><svg t="1692608157216" class="icon" viewBox="0 0 1024 1024" version="1.1" xmlns="http://www.w3.org/2000/svg" p-id="4040" xmlns:xlink="http://www.w3.org/1999/xlink" width="200" height="200"><path d="M789.922409 305.422945h111.583022c30.756491 0 55.791511-24.958229 55.791512-55.649192V138.475371c0-30.690963-25.03502-55.649191-55.791512-55.649192h-111.583022c-30.756491 0-55.791511 24.958229-55.791512 55.649192v27.824083H559.31886c-15.418689 0-27.895756 12.458637-27.895755 27.825108v297.253364h-123.705825V380.079543c0-30.690963-25.03502-55.649191-55.791512-55.649191H120.191851c-30.769802 0-55.791511 24.958229-55.791512 55.649191v278.245957c0 30.690963 25.02171 55.649191 55.791512 55.649191h231.733917c30.756491 0 55.791511-24.958229 55.791512-55.649191V547.027117h123.705825v297.266674c0 15.366471 12.477067 27.825108 27.895755 27.825108h174.348217c0.155631 0 0.308189-0.009215 0.462796-0.011263v27.83637c0 30.690963 25.03502 55.649191 55.791512 55.649192h111.583023c30.756491 0 55.791511-24.958229 55.791511-55.649192V788.6446c0-30.690963-25.03502-55.649191-55.791511-55.649191h-111.583023c-30.756491 0-55.791511 24.958229-55.791512 55.649191v27.83637c-0.154607-0.003072-0.308189-0.011263-0.462796-0.011263H587.214616V547.027117h146.916281v32.933271c0 30.690963 25.03502 55.649191 55.791512 55.649192h111.583022c30.756491 0 55.791511-24.958229 55.791512-55.649192V468.662006c0-30.690963-25.03502-55.649191-55.791512-55.649191h-111.583022c-30.756491 0-55.791511 24.958229-55.791512 55.649191v22.71592H587.214616V221.94967h146.916281v27.824083c0 30.691986 25.03502 55.649191 55.791512 55.649192z m0-166.947574h111.583022l0.027645 111.298382H789.922409V138.475371zM120.191851 658.3255V380.079543h231.733917l0.027645 278.245957H120.191851z m669.730558 130.3191h111.583022l0.027645 111.298382H789.922409V788.6446z m0-319.982594h111.583022l0.027645 111.298382H789.922409V468.662006z" fill="#3E3A39" p-id="4041"></path></svg>