<?xml version="1.0" standalone="no"?><!DOCTYPE svg PUBLIC "-//W3C//DTD SVG 1.1//EN" "http://www.w3.org/Graphics/SVG/1.1/DTD/svg11.dtd"><svg t="1632887054571" class="icon" viewBox="0 0 1024 1024" version="1.1" xmlns="http://www.w3.org/2000/svg" p-id="6644" xmlns:xlink="http://www.w3.org/1999/xlink" width="40" height="40"><defs><style type="text/css"></style></defs><path d="M768 64a128 128 0 0 1 128 128v640a128 128 0 0 1-128 128H256a128 128 0 0 1-128-128V192a128 128 0 0 1 128-128h512z m0 64H256a64 64 0 0 0-63.552 56.512L192 192v640a64 64 0 0 0 56.512 63.552L256 896h512a64 64 0 0 0 63.552-56.512L832 832V192a64 64 0 0 0-56.512-63.552L768 128z m-448 576v64H256v-64h64z m448 0v64H384v-64h384zM320 576v64H256V576h64z m448 0v64H384V576h384zM320 448v64H256V448h64z m448 0v64H384V448h384zM608 256a32 32 0 0 1 0 64h-192a32 32 0 0 1 0-64h192z"  p-id="6645"></path></svg>